HIERARCHY
ROOT Hips
{
	OFFSET 0.00000 0.00000 0.00000
	CHANNELS 6 Xposition Yposition Zposition Zrotation Yrotation Xrotation 
	JOINT LHipJoint
	{
		OFFSET 0 0 0
		CHANNELS 3 Zrotation Yrotation Xrotation
		JOINT LeftHip
		{
			OFFSET 1.75344 -1.53157 0.77399
			CHANNELS 3 Zrotation Yrotation Xrotation
			JOINT LeftKnee
			{
				OFFSET 2.25415 -6.19323 0.00000
				CHANNELS 3 Zrotation Yrotation Xrotation
				JOINT LeftAnkle
				{
					OFFSET 2.30342 -6.32861 0.00000
					CHANNELS 3 Zrotation Yrotation Xrotation
					JOINT LeftToe
					{
						OFFSET 0.10958 -0.30108 1.49206
						CHANNELS 3 Zrotation Yrotation Xrotation
						End Site
						{
							OFFSET 0.00000 -0.00000 0.77783
						}
					}
				}
			}
		}
	}
	JOINT RHipJoint
	{
		OFFSET 0 0 0
		CHANNELS 3 Zrotation Yrotation Xrotation
		JOINT RightHip
		{
			OFFSET -1.81912 -1.53156 0.77399
			CHANNELS 3 Zrotation Yrotation Xrotation
			JOINT RightKnee
			{
				OFFSET -2.22882 -6.12365 0.00000
				CHANNELS 3 Zrotation Yrotation Xrotation
				JOINT RightAnkle
				{
					OFFSET -2.21943 -6.09785 0.00000
					CHANNELS 3 Zrotation Yrotation Xrotation
					JOINT RightToe
					{
						OFFSET -0.18931 -0.52012 1.59379
						CHANNELS 3 Zrotation Yrotation Xrotation
						End Site
						{
							OFFSET -0.00000 -0.00000 0.84686
						}
					}
				}
			}
		}
	}
	JOINT lowerback
	{
		OFFSET 0 0 0
		CHANNELS 3 Zrotation Yrotation Xrotation
		JOINT Chest
		{
			OFFSET -0.00200 1.66634 -0.14248
			CHANNELS 3 Zrotation Yrotation Xrotation
			JOINT Chest2
			{
				OFFSET -0.00875 1.64542 0.09514
				CHANNELS 3 Zrotation Yrotation Xrotation
				JOINT lowerneck
				{
					OFFSET 0 0 0
					CHANNELS 3 Zrotation Yrotation Xrotation
					JOINT Neck
					{
						OFFSET 0.02257 1.59605 0.00839
						CHANNELS 3 Zrotation Yrotation Xrotation
						JOINT Head
						{
							OFFSET -0.10214 1.57530 -0.23335
							CHANNELS 3 Zrotation Yrotation Xrotation
							End Site
							{
								OFFSET -0.03588 1.60717 -0.08062
							}
						}
					}
				}
				JOINT LeftCollar
				{
					OFFSET 0 0 0
					CHANNELS 3 Zrotation Yrotation Xrotation
					JOINT LeftShoulder
					{
						OFFSET 2.54983 1.10186 0.40078
CHANNELS 3 Zrotation Xrotation Yrotation
						JOINT LeftElbow
						{
OFFSET 0 -4.288400 0.000000
CHANNELS 3 Zrotation Xrotation Yrotation
							JOINT LeftWrist
							{
OFFSET 0 -3.065520 -0.000000
CHANNELS 3 Zrotation Xrotation Yrotation
								JOINT lhand
								{
									OFFSET 0 0 0
CHANNELS 3 Zrotation Xrotation Yrotation
									JOINT LFingers
									{
OFFSET 0 -0.753040 0.000000
CHANNELS 3 Zrotation Xrotation Yrotation
										End Site
										{
OFFSET 0 -0.607120 0.000000
										}
									}
								}
								JOINT LThumb
								{
OFFSET 0 0.000000 0.000000
CHANNELS 3 Zrotation Xrotation Yrotation
									End Site
									{
OFFSET 0 -0.616390 0.616390
									}
								}
							}
						}
					}
				}
				JOINT RightCollar
				{
					OFFSET 0 0 0
					CHANNELS 3 Zrotation Yrotation Xrotation
					JOINT RightShoulder
					{
						OFFSET -2.60909 1.35448 0.21802
CHANNELS 3 Zrotation Xrotation Yrotation
						JOINT RightElbow
						{
OFFSET 0 -4.521720 -0.000000
CHANNELS 3 Zrotation Xrotation Yrotation
							JOINT RightWrist
							{
OFFSET 0 -2.891400 0.000000
CHANNELS 3 Zrotation Xrotation Yrotation
								JOINT rhand
								{
									OFFSET 0 0 0
CHANNELS 3 Zrotation Xrotation Yrotation
									JOINT RFingers
									{
OFFSET 0 -0.680540 0.000000
CHANNELS 3 Zrotation Xrotation Yrotation
										End Site
										{
OFFSET 0 -0.548670 0.000000
										}
									}
								}
								JOINT RThumb
								{
OFFSET 0 0.000000 0.000000
CHANNELS 3 Zrotation Xrotation Yrotation
									End Site
									{
OFFSET 0 -0.557050 0.557050
									}
								}
							}
						}
					}
				}
			}
		}
	}
}
MOTION
Frames: 4
Frame Time: 0.008333333333333333
8.713304 16.577512 18.611132 -175.942270 -6.013493 190.299624 0.000000 0.000000 0.000000 -18.184854 -10.279411 -8.950787 2.755848 10.262845 29.856587 0.068947 4.300176 5.223859 1.523234 -7.610347 -21.624926 0.000000 0.000000 0.000000 25.943454 -1.839021 -8.903668 -2.033001 -8.905674 25.520342 0.971712 -22.879483 8.272651 -0.831064 -5.540909 15.532496 4.424657 1.895361 18.489982 0.613302 3.487999 -1.216049 -2.800943 1.341941 -11.542420 -3.184322 -0.900010 -18.187540 2.030638 -0.995942 1.546874 1.113051 -0.572384 3.523812 0.000000 0.000000 0.000000 144.298249 -55.224687 78.852458 42.421347 -49.440487 20.260171 28.966847 -38.731084 59.196923 0.000000 0.000000 0.000000 -7.125000 0.000000 0.000000 -9.783103 -31.817447 -13.584686 0.000000 0.000000 0.000000 -140.971045 -52.954340 -66.484757 -46.078069 -51.285636 -23.077002 -11.056424 25.423912 42.596781 0.000000 0.000000 0.000000 7.125000 0.000000 0.000000 38.330538 69.606050 -23.752103
8.693050 16.792325 18.438511 -176.091626 -6.489253 189.396975 0.000000 0.000000 0.000000 -18.676933 -11.565157 -5.557065 2.217213 9.292631 26.723744 0.055660 8.816127 7.525483 0.654218 -4.744184 -13.243277 0.000000 0.000000 0.000000 25.734788 -0.348196 -5.371413 -1.576541 -7.907758 22.441567 1.926868 -28.342310 6.583260 -2.055994 -8.611055 24.864615 4.438629 1.891514 17.763135 0.711931 3.398273 -0.539927 -2.620293 1.340356 -10.371850 -3.324560 -0.773320 -22.411272 1.714022 -0.615856 4.856706 0.999457 -0.384271 5.009536 0.000000 0.000000 0.000000 144.167716 -54.256052 78.172264 42.153430 -49.295029 20.056810 28.776822 -38.586157 59.587339 0.000000 0.000000 0.000000 -7.125000 0.000000 0.000000 -10.018930 -32.106076 -13.932709 0.000000 0.000000 0.000000 -142.197687 -51.620318 -66.344251 -45.883397 -51.193981 -22.925154 -11.831950 26.139113 42.450271 0.000000 0.000000 0.000000 7.125000 0.000000 0.000000 37.248080 69.750580 -23.131723
8.673283 17.007808 18.267718 -176.258043 -6.942955 188.678958 0.000000 0.000000 0.000000 -19.300021 -13.785461 -2.263642 1.797888 8.427651 24.023173 -0.174434 14.603544 8.210138 0.038630 -0.524839 -1.453662 0.000000 0.000000 0.000000 25.661580 2.154940 -1.863288 -1.220502 -7.002463 19.724745 3.865513 -34.240516 -1.006700 -4.762191 -13.033226 39.611224 4.447848 1.856589 17.002225 0.834752 3.298188 -0.218812 -2.422154 1.321527 -9.596017 -3.796466 -0.680267 -24.710254 1.542370 -0.210360 7.034976 1.066961 -0.200118 6.042027 0.000000 0.000000 0.000000 143.192261 -53.576554 76.395974 41.891850 -49.151582 19.858750 29.218571 -38.781795 60.041432 0.000000 0.000000 0.000000 -7.125000 0.000000 0.000000 -10.072684 -32.619861 -14.034981 0.000000 0.000000 0.000000 -142.969144 -50.723930 -65.450285 -45.789328 -51.149369 -22.851789 -12.472383 26.655788 42.347452 0.000000 0.000000 0.000000 7.125000 0.000000 0.000000 36.380601 69.883167 -22.647472
8.656234 17.216900 18.105153 -176.473676 -7.383950 188.207753 0.000000 0.000000 0.000000 -20.304933 -17.417806 0.936198 1.535171 7.813229 22.152799 -1.106397 21.213520 4.575888 0.891570 5.059901 14.254672 0.000000 0.000000 0.000000 25.863611 5.492900 1.339775 -0.987060 -6.310557 17.692604 4.620639 -35.454595 -14.952419 -7.676634 -15.717212 51.109987 4.377809 1.816523 16.189675 0.950741 3.213015 -0.297296 -2.203963 1.303872 -9.238735 -4.452967 -0.590006 -25.022551 1.589028 0.180665 8.217627 1.239948 -0.016846 6.465423 0.000000 0.000000 0.000000 141.647596 -53.304221 73.839510 41.677061 -49.032523 19.696463 30.337801 -39.113106 60.174082 0.000000 0.000000 0.000000 -7.125000 0.000000 0.000000 -9.765256 -33.041605 -13.619390 0.000000 0.000000 0.000000 -143.199968 -50.224864 -63.703204 -45.826378 -51.166974 -22.880675 -12.238546 26.256470 42.363263 0.000000 0.000000 0.000000 7.125000 0.000000 0.000000 36.657708 69.818379 -22.784657
